<?xml version="1.0" encoding="UTF-8" standalone="no"?>
<!DOCTYPE svg PUBLIC "-//W3C//DTD SVG 1.1//EN" "http://www.w3.org/Graphics/SVG/1.1/DTD/svg11.dtd">
<svg width="100%" height="100%" viewBox="0 0 527 204" version="1.1" xmlns="http://www.w3.org/2000/svg" xmlns:xlink="http://www.w3.org/1999/xlink" xml:space="preserve" xmlns:serif="http://www.serif.com/" style="fill-rule:evenodd;clip-rule:evenodd;stroke-linejoin:round;stroke-miterlimit:2;">
    <g transform="matrix(1,0,0,1,-20.11,-40.029)">
        <g>
            <path d="M94.81,203.24C83.7,203.07 74.9,211.86 74.88,223.14C74.87,234.01 83.16,242.53 94.1,242.88C105.65,243.25 115.18,234.24 115.09,223.02C115.02,212.15 106.05,203.41 94.81,203.24Z" style="fill:rgb(231,29,114);fill-rule:nonzero;"/>
            <path d="M146.75,149.26C135.64,149.09 126.84,157.88 126.82,169.16C126.81,180.03 135.1,188.55 146.04,188.9C157.59,189.27 167.12,180.26 167.03,169.04C166.96,158.17 157.99,149.43 146.75,149.26Z" style="fill:rgb(77,176,91);fill-rule:nonzero;"/>
            <path d="M114.73,115.71C115.29,104.67 106.86,95.4 95.63,94.69C85.1,94.03 75.38,102.35 74.52,112.75C73.62,123.68 82.82,134.45 93.5,134.95C103.96,135.45 114.2,126.17 114.73,115.71Z" style="fill:rgb(52,78,154);fill-rule:nonzero;"/>
            <path d="M148.19,80.21C159.47,80.2 168.08,71.67 168.22,60.38C168.36,49.35 159.58,40.37 148.51,40.23C137.24,40.09 128.77,48.47 128.57,59.96C128.39,70.91 137.41,80.22 148.19,80.21Z" style="fill:rgb(54,169,225);fill-rule:nonzero;"/>
            <path d="M147.88,95.39C122.99,91.54 114.39,82.75 112.69,58.3C112.1,49.83 108.8,44.03 100.7,41.35C92.66,38.69 85.25,39.92 79.35,46.2C73.53,52.4 72.3,59.69 75.38,67.73C78.98,77.16 86.48,78.68 95.47,78.86C115.73,79.25 130.33,94.47 130.37,114.48C130.41,134.87 115.46,150.01 94.87,150.43C75.04,150.84 59.96,136.38 58.7,116.07C58.6,114.53 58.44,112.98 58.22,111.43C58.14,108.86 57.55,106.43 56.56,104.23C56.43,103.87 56.34,103.49 56.2,103.14C53.72,96.86 48.45,93.63 41.48,93.37C40.78,93.3 40.08,93.25 39.36,93.25C35.73,93.26 32.35,94.26 29.46,95.96C29.28,96.06 29.1,96.17 28.93,96.28C28.2,96.74 27.5,97.24 26.85,97.8C26.66,97.96 26.47,98.13 26.28,98.3C23.95,100.42 22.16,103.08 21.12,106.1C21.09,106.2 21.04,106.3 21.01,106.4C20.93,106.62 20.89,106.86 20.82,107.08C20.37,108.68 20.11,110.35 20.11,112.08C20.11,122.07 28.21,130.62 37.98,131.27C38.35,131.29 38.72,131.33 39.1,131.33C39.62,131.33 40.12,131.3 40.63,131.26C44.09,131.41 47.56,132.04 50.91,133.17C65.54,138.14 73.59,150.05 73.78,167.02C73.94,181.14 79.73,187.35 93.57,188.21C117.3,189.69 128.13,200.94 129.04,225.05C129.45,236.02 136.45,243.03 147.37,243.4C157.74,243.76 166.57,236.4 167.6,226.53C168.89,214.14 163.87,206.96 152.37,204.98C149.1,204.42 145.77,204.18 142.48,203.78C128.59,202.07 118.55,194.9 114.04,181.64C109.47,168.19 111.22,155.51 121.41,144.64C128.76,136.79 138.09,134.33 148.32,133.62C161.51,132.69 167.97,126.33 167.87,114.79C167.76,102.46 162.86,97.71 147.88,95.39Z" style="fill:rgb(48,56,59);fill-rule:nonzero;"/>
        </g>
        <g>
            <path d="M430.81,165.34C430.81,171.52 434.97,175.36 441.67,175.36C454.25,175.36 456.83,167.59 456.83,155.94L456.83,154.29L448.17,154.29C436.16,154.29 430.81,157.7 430.81,165.34Z" style="fill:none;fill-rule:nonzero;"/>
            <path d="M243.09,168.7C243.09,168.56 243.11,168.43 243.11,168.29C243.05,167.65 243.01,166.96 243.01,166.2L243.01,129.5L257.18,129.5L257.18,117.25L243.01,117.25L243.01,99.85C236.93,109.45 227.05,116.3 215.72,118.75L215.72,129.5L226.85,129.5L226.85,168.64C226.85,181.3 232.05,186.95 243.73,186.95C246.56,186.95 251.78,186.95 255.48,185.73L255.48,182.48C248.52,181.74 243.09,175.86 243.09,168.7Z" style="fill:rgb(48,56,59);fill-rule:nonzero;"/>
            <path d="M328.83,117.25L312.66,117.25L312.66,153.61C312.66,168.53 308.6,174.34 298.19,174.34C290.07,174.34 285.96,169.13 285.96,158.85L285.96,117.24L269.84,117.24L269.84,162.27C269.84,178.62 277.93,187.62 292.61,187.62C302.13,187.62 308.31,184.36 312.08,177.35L312.63,176.33L312.67,177.48C312.74,179.76 312.87,183.93 313.13,185.99L328.96,185.99C328.88,181.06 328.83,173.67 328.83,166.12L328.83,117.25Z" style="fill:rgb(48,56,59);fill-rule:nonzero;"/>
            <path d="M376.12,143.5C364.83,140.84 361.74,138.89 361.74,134.43C361.74,131.69 363.06,127.08 371.87,127.08C378.98,127.08 383.3,129.95 384.71,135.6L400.15,135.6C399.28,125.88 391.61,115.62 372.61,115.62C352.86,115.62 345.83,126.05 345.83,135.82C345.83,145.65 349.86,151.97 371.11,157.18C382.36,159.93 385.44,162.14 385.44,167.49C385.44,173.06 381.57,175.88 373.94,175.88C366.11,175.88 361.04,172.5 359.27,166.1L343.33,166.1C345.3,179.98 355.94,187.62 373.33,187.62C394.4,187.62 401.91,176.6 401.91,166.29C401.91,155.68 397.69,148.55 376.12,143.5Z" style="fill:rgb(48,56,59);fill-rule:nonzero;"/>
            <path d="M473.19,138.82C473.19,123.31 464.16,115.73 445.6,115.63L445.32,115.63C423.84,115.63 418.14,126.97 417.18,136.65L432.61,136.65C433.58,131.87 435.43,127.27 444.99,127.27C453.35,127.27 457.41,130.99 457.41,138.64L457.41,143.75L446.55,143.75C425.2,143.75 413.91,151.57 413.91,166.36C413.91,176.17 420.02,187.62 437.23,187.62C446.97,187.62 453.47,184.67 457.11,178.6L457.65,177.7L457.68,178.75C457.76,181.2 458.12,184.49 458.62,186L474.06,186C473.66,183.58 473.18,175.45 473.18,169.32L473.18,138.82L473.19,138.82ZM457.45,155.94C457.45,166.35 455.54,175.98 441.67,175.98C434.59,175.98 430.19,171.9 430.19,165.34C430.19,157.27 435.74,153.67 448.17,153.67L457.45,153.67L457.45,155.94Z" style="fill:rgb(48,56,59);fill-rule:nonzero;"/>
            <rect x="530.68" y="87.92" width="16.16" height="98.09" style="fill:rgb(48,56,59);"/>
            <rect x="493.97" y="117.25" width="16.16" height="68.75" style="fill:rgb(48,56,59);"/>
            <path d="M501.84,105.99C501.85,105.99 501.85,105.99 501.84,105.99C506.55,105.99 510.13,102.44 510.19,97.73C510.25,93.16 506.56,89.4 501.98,89.34L501.86,89.34C497.19,89.34 493.76,92.78 493.67,97.56C493.63,99.76 494.51,101.93 496.09,103.53C497.66,105.11 499.7,105.99 501.84,105.99Z" style="fill:rgb(48,56,59);fill-rule:nonzero;"/>
        </g>
    </g>
</svg>